<svg width="148" height="142" xmlns="http://www.w3.org/2000/svg" class=""><g fill="none" fill-rule="evenodd"><path d="M75.09 110.42c-.004285.7123772-.3871755 1.3686994-1.0051956 1.7230309-.6180201.3543316-1.3778639.353177-1.9948044-.0030309-2.7030818-1.6668838-5.8245452-2.5304887-9-2.49h-34c-1.65685425 0-3-1.3431458-3-3v-54c0-1.6568542 1.34314575-3 3-3h34c11 0 12 7 12 7v53.77Z" fill="#E9EDF6" fill-rule="nonzero"></path><path d="M72.0899574 110.2c-.0047957.763481.4031879 1.4700174 1.0668527 1.8474768.6636648.3774593 1.4794674.3669513 2.1331899-.0274768 2.6607586-1.5814145 5.7049183-2.4012621 8.8-2.37h34c1.6568542 0 3-1.3431458 3-3V58.19c0-4.7165118-3.8234882-8.54-8.54-8.54H84.09c-10.85 0-12.0000426 6.81-12.0000426 7v53.55Z" fill="#E9EDF6" fill-rule="nonzero"></path><path d="M72.09 57c-.25-.9-1.7-4.32-9-4.32h-34v54h34c3.1184436-.0140858 6.1981685.6908291 9 2.06V57ZM112.55 52.65H84.09c-7.3 0-8.75 3.42-9 4.32v51.74c2.8018315-1.3691709 5.8815564-2.0740858 9-2.06h34V58.19c-.0055038-3.0573748-2.4826252-5.5344962-5.54-5.54Z"></path><path d="M112.55 49.65H84.09c-6 0-9 2-10.5 3.93-1.52-1.88-4.54-3.93-10.5-3.93h-34c-1.65685425 0-3 1.3431458-3 3v54c0 1.6568542 1.34314575 3 3 3h34c3.1754548-.0404887 6.2969182.8231162 9 2.49.3004714.1864529.6463938.2867704 1 .29.2465783-.0018822.4906826-.049347.72-.14a1.74999771 1.74999771 0 0 0 .4 0c.3815482-.0028116.7550466-.1100194 1.08-.31 2.6607586-1.5814145 5.7049183-2.4012621 8.8-2.37h34c1.6568542 0 3-1.3431458 3-3V58.19c0-4.7165118-3.8234882-8.54-8.54-8.54Zm-49.46 57h-34v-54h34c7.3 0 8.75 3.42 9 4.32v51.74c-2.8018315-1.3691709-5.8815564-2.0740858-9-2.06Zm55 0h-34c-3.1184436-.0140858-6.1981685.6908291-9 2.06V57c.25-.9 1.7-4.32 9-4.32h28.46c3.0573748.0055038 5.5344962 2.4826252 5.54 5.54v48.43Z" fill="#6C7283" fill-rule="nonzero"></path><path d="M75.09 56.6v51.48c1.63-1.82 4.09-4.51 8.41-5.37 8.3-1.66 25.86-5 26-5h.56V43.7c-3.38.65-21 4.07-27.18 5.83-7.18 2.06-7.78 5.93-7.79 7.07ZM49.59 53.14l1.77 1.29 1.73 1.26v-8.77l-1.66-.35h-.18l-3.37-.7h-.08l-1.6-.33h-.07v10.15l1.73-1.26z" fill="#FFF" fill-rule="nonzero"></path><path d="m64.26 49.53-.69-.19-.24-.06-.56-.15-.27-.07-.61-.15-.28-.07-.84-.2h-.07l-1.06-.25h-.06l-1-.24h-.19l-1-.22h-.17l-1.14-.25v10.06c-.0481655 1.0692723-.929644 1.9110843-2 1.91-.435474-.0020861-.859085-.1421228-1.21-.4l-3.28-2.4-3.28 2.4c-.351546.2566524-.7747493.3965543-1.21.4-1.070356.0010843-1.9518345-.8407277-2-1.91V44.88l-5-1H38l-.93-.18v54h.55c.18 0 17.74 3.35 26 5 4.32.86 6.78 3.55 8.41 5.37V56.6c.05-1.14-.55-5.01-7.77-7.07Z" fill="#FFF" fill-rule="nonzero"></path><path fill="#E9EDF6" fill-rule="nonzero" d="M46.09 45.48h.07l1.6.33h.08l3.37.7h.18l1.66.35v8.77l-1.73-1.26-1.77-1.29-1.77 1.29-1.73 1.26z"></path><path d="M110.09 40.65s-21 4-28 6c-1.6802182.45493964-3.2938537 1.12728775-4.8 2a14.34999762 14.34999762 0 0 0-1.67 1.18 11.52001389 11.52001389 0 0 0-1.27 1.23 10.41999568 10.41999568 0 0 0-.76 1 10.41999568 10.41999568 0 0 0-.76-1 11.52001389 11.52001389 0 0 0-1.27-1.23 13.69000087 13.69000087 0 0 0-1.68-1.18c-1.5023956-.87314634-3.1127862-1.54554327-4.79-2l-.78-.22-.26-.07-.61-.16-.33-.08-.66-.12-.32-.08-.81-.2h-.22c-5.28-1.25-12.8-2.78-18-3.81l-.89-.18h-.06l-2.34-.46h-.09l-1.18-.23h-.08l-.8-.15h-.07l-.34-.06H37.1c-1.65685425 0-3 1.34314575-3 3v54c0 1.6568542 1.34314575 3 3 3l2.88.54 1.46.28 5.52 1 4.23.81 3.24.62 2.12.41 2 .4 1.92.38 2.58.51c1.3928155.2650547 2.7084422.8391463 3.85 1.68 2.29 1.63 3.57 3.86 5 4.69a2.3600007 2.3600007 0 0 0 .52.23h.2c.1150624.0264289.23214.0431543.35.0500064.148734 0 .2968089-.0197784.44-.0600064h.26c.1431911.040228.291266.0600064.44.0600064.114558-.0068872.2283111-.0236156.34-.0500064h.2a2.23999818 2.23999818 0 0 0 .53-.23c1.37-.83 2.65-3.06 4.94-4.69a10.69999901 10.69999901 0 0 1 1.36-.83c.7917781-.3933625 1.632543-.6792226 2.5-.85l2.58-.51 1.92-.38 2-.4 2.12-.41 3.25-.62 4.23-.81 5.52-1 1.45-.28 2.89-.54c1.6568542 0 3-1.3431458 3-3v-54c.049076-.80093292-.2247609-1.58814337-.7603146-2.18570859-.5355538-.59756522-1.2881802-.95567178-2.0896854-.99429141Zm-64 4.83h.07l1.6.33h.08l3.37.7h.18l1.66.35v11.83l-1.73-1.26-1.77-1.29-1.77 1.29-1.73 1.26.04-13.21Zm26 62.6c-1.63-1.82-4.09-4.51-8.41-5.37-8.3-1.66-25.86-5-26-5h-.55V43.7l.93.18h.07l5 1v15.86c.0481655 1.0692723.929644 1.9110843 2 1.91.4352507-.0034457.858454-.1433476 1.21-.4l3.28-2.4 3.28 2.4c.350915.2578772.774526.3979139 1.21.4 1.070356.0010843 1.9518345-.8407277 2-1.91V47.57l1.14.25h.17l1 .22h.19l1 .24h.06l1.06.25h.07l.84.2.28.07.61.15.27.07.56.15.24.06.69.19c7.22 2.06 7.82 5.93 7.83 7.07v51.48l-.03.11Zm38-10.43h-.56c-.17 0-17.73 3.35-26 5-4.32.86-6.78 3.55-8.41 5.37V56.6c0-1.14.61-5 7.82-7.07 6.16-1.76 23.8-5.18 27.18-5.83l-.03 53.95Z" fill="#6C7283" fill-rule="nonzero"></path><path d="m108.54 55.13 2.83-2.83c1.9524993-1.9519097 5.1175007-1.9519097 7.07 0 1.9519097 1.9524993 1.9519097 5.1175007 0 7.07l-2.83 2.83-7.07-7.07Z" fill="#FFF"></path><path d="M114.9 52.33c1.4228569-.0024898 2.7064513.8542541 3.2499678 2.1692133S118.3893808 57.3271649 117.38 58.33l-1.77 1.77-5-5 1.77-1.77c.6580465-.647843 1.5465996-1.0075811 2.47-1m0-3c-1.7230904.00108319-3.3747959.6883942-4.59 1.91l-3.89 3.89 9.19 9.19 3.89-3.89c1.8519772-1.8626495 2.403148-4.6557865 1.3975571-7.082321-1.0055908-2.4265345-3.3709169-4.01103311-5.9975571-4.017679Z" fill="#6C7283" fill-rule="nonzero"></path><path fill="#E9EDF6" fill-rule="nonzero" d="m92.26870904 71.39139058 16.26345597-16.26345596 7.0710678 7.0710678L99.33977686 78.4624584z"></path><path d="m108.54 57.25 5 5-14.19 14.09-4.95-5 14.14-14.14m0-4.24L90.15 71.39l9.2 9.19 18.38-18.38-9.19-9.2v-.04Z" fill="#6C7283" fill-rule="nonzero"></path><path fill="#6C7283" d="m91.05 74.41 5.28 5.28-6.7 1.42z"></path><path d="m91.94 77.42 1.38 1.38-1.75.37.37-1.75m-1.79-6-2.47 11.67 11.67-2.48-9.2-9.19Z" fill="#6C7283" fill-rule="nonzero"></path><g fill="#E9EDF6"><g><circle fill-rule="nonzero" cx="12.04" cy="70.65" r="3"></circle><circle fill-rule="nonzero" cx="46.04" cy="29.65" r="3"></circle><circle fill-rule="nonzero" cx="25.04" cy="3.65" r="3"></circle><path d="M11 99.7c.3755541.375137.5865733.884182.5865733 1.415S11.3755541 102.154863 11 102.53l-2.12 2.12 2.12 2.12c.5055308.505531.7029631 1.242358.5179259 1.932926-.1850371.690568-.724432 1.229963-1.415 1.415-.69056788.185037-1.42739509-.012395-1.9329259-.517926l-2.12-2.12L4 109.6c-.50553081.505531-1.24235802.702963-1.93292595.517926-.69056792-.185037-1.22996288-.724432-1.415-1.415C.46703694 108.012358.6644692 107.275531 1.17 106.77l2.12-2.12-2.12-2.12c-.7814829-.781483-.7814829-2.048517 2e-8-2.83.78148291-.7814829 2.04851706-.7814829 2.82999998 0l2.12 2.12 2.12-2.12c.77259659-.7365084 1.9874034-.7365084 2.76 0ZM147.09 60.65c0 1.1045695-.895431 2-2 2h-2v2c0 1.1045695-.895431 2-2 2-1.104569 0-2-.8954305-2-2v-2h-2c-1.104569 0-2-.8954305-2-2s.895431-2 2-2h2v-2c0-1.1045695.895431-2 2-2 1.104569 0 2 .8954305 2 2v2h2c1.104569 0 2 .8954305 2 2ZM74.87 4.82c.3755541.37513651.5865733.8841815.5865733 1.415 0 .5308185-.2110192 1.03986349-.5865733 1.415l-3.53 3.46 4.21 4.22c.17 2.66-2.27 3.38-3.51 2.15l-3.53-3.54L65 17.48c-.7814829.7814829-2.048517.7814828-2.8299999-1e-7-.7814829-.7814829-.781483-2.048517-1e-7-2.8299999l3.47-3.54L61.53 7c-.17-2.67 2.28-3.38 3.51-2.15l3.47 3.46L72 4.82c.3766316-.38795474.8942965-.60688299 1.435-.60688299S74.4933684 4.43204526 74.87 4.82Z"></path><path d="M5 36.72c.55228475 0 1 .4477153 1 1s-.44771525 1-1 1-1-.4477153-1-1 .44771525-1 1-1m0-4c-2.76142375 0-5 2.2385763-5 5s2.23857625 5 5 5 5-2.2385763 5-5-2.23857625-5-5-5Z" fill-rule="nonzero"></path><circle fill-rule="nonzero" cx="144.09" cy="93.65" r="3"></circle><circle fill-rule="nonzero" cx="96.09" cy="21.65" r="3"></circle><path d="M127 12.65c1.104569 0 2 .8954305 2 2s-.895431 2-2 2c-1.104569 0-2-.8954305-2-2s.895431-2 2-2m0-4c-3.313708 0-6 2.6862915-6 6s2.686292 6 6 6 6-2.6862915 6-6-2.686292-6-6-6Z" fill-rule="nonzero"></path></g></g><g transform="translate(39 131)" fill="#E9EDF6" fill-rule="nonzero"><ellipse cx="35.59" cy="5.91" rx="35.5" ry="5"></ellipse></g></g></svg>