<svg width="159" height="60" viewBox="0 0 169 60" xmlns="http://www.w3.org/2000/svg"><g fill="#FFF" fill-rule="evenodd"><path d="M60 43.9999996v-6.67199717h1.64c2.02 0 3.1 1.28199717 3.1 3.36199717 0 2.09-1.08 3.31-3.06 3.31H60Zm.83-.68h.75c1.53 0 2.3-.97 2.3-2.63 0-1.65-.77-2.68199717-2.3-2.68199717h-.75v5.31199717Zm5.19164223.68v-4.86h.82v4.86h-.82Zm.48626627-5.9533206c-.32 0-.57-.22-.57-.53 0-.32.25-.53.57-.53.32 0 .57.21.57.53 0 .31-.25.53-.57.53Zm3.495385 7.97567383c-1.19000002 0-1.99994553-.42567383-1.99994553-1.26567383 0-.41.27-.8.71-1.1v-.04c-.24-.15-.43-.41-.43-.79 0-.41.28-.73.53-.9v-.04c-.32-.26-.63-.5766794-.63-1.1566794 0-1.06.84-1.73 1.83000003-1.73.27 0 .51.05.69.12h1.69v.63h-1c.23.22.4.59.4 1 0 1.04-.79 1.5366794-1.78 1.5366794-.24000003 0-.51000003-.06-.73000003-.17-.17.15-.31.31-.31.58 0 .31.2.53.86.53h.94000003c1.13 0 1.7.35 1.7 1.16 0 .9-.9600545 1.63567383-2.4700545 1.63567383Zm.0100545-4.28567383c.56 0 1.03-.2966794 1.03-1.0066794s-.46-1.13-1.03-1.13c-.57000003 0-1.03000003.42-1.03000003 1.13s.47 1.0066794 1.03000003 1.0066794Zm.1099455 3.71567383c.93 0 1.5500545-.43567383 1.5500545-.94567383 0-.45-.35-.6-.98-.6h-.84000003c-.19 0-.42-.02-.63-.08-.35.25-.5.54-.5.82 0 .52.51994551.80567383 1.39994553.80567383Zm3.8862717-1.54567383v-4.86h.82v4.86h-.82Zm.3795677-5.86c-.32 0-.57-.22-.57-.53 0-.32.25-.53.57-.53.32 0 .57.21.57.53 0 .31-.25.53-.57.53ZM78.395 44.0099996c-1.04 0-1.39-.66-1.39-1.62v-2.69h-.72v-.62l.76-.05.1-1.03h.69v1.03h1.1729265v.67H77.835v2.7c0 .6.19.94.75.94.17 0 .39-.07.55-.13l.16.62c-.27.09-.6.18-.9.18Zm3.2133857.0366794c-.81 0-1.42-.51-1.42-1.38 0-1.06.91-1.59 2.98-1.82 0-.62-.2-1.22-1-1.22-.56 0-1.07.26-1.45.52l-.32-.57c.45-.29 1.13-.63 1.91-.63 1.19 0 1.69.79 1.69 2v2.98h-.68l-.07-.58h-.03c-.46.38-1 .7-1.61.7Zm.24-.66c.47 0 .85-.23 1.32-.65v-1.35c-1.62.2-2.18.6-2.18 1.22 0 .55.38.78.86.78Zm4.2359715.54c-.62 0-.87-.39-.87-1.1l-.1097067-5.84h.82l.1097067 5.9c0 .26.11.36.23.36.05 0 .09 0 .18-.02l.11.62c-.11.05-.25.08-.47.08Zm4.9858498.0633206v-6.92h1.87c1.47 0 2.46.59 2.46 2.03 0 1.38-.98 1.84-2.42 1.84h-1.08v3.05h-.83Zm.83-3.73h.98c1.14 0 1.69-.23 1.69-1.16 0-.95-.58-1.36-1.73-1.36h-.94v2.52Zm6.0069191 3.72c-.62 0-.87-.39-.87-1.1v-5.88h.82v5.94c0 .26.11.36.23.36.05 0 .09 0 .18-.02l.11.62c-.11.05-.25.08-.47.08Zm2.6961806.02c-.81 0-1.42-.51-1.42-1.38 0-1.06.91-1.59 2.98-1.82 0-.62-.2-1.22-1-1.22-.56 0-1.07.26-1.45.52l-.32-.57c.45-.29 1.13-.63 1.91-.63 1.19 0 1.69.79 1.69 2v2.98h-.68l-.07-.58h-.03c-.46.38-1 .7-1.61.7Zm.24-.66c.47 0 .85-.23 1.32-.65v-1.35c-1.62.2-2.18.6-2.18 1.22 0 .55.38.78.86.78Zm5.5532703.67c-1.04 0-1.39-.66-1.39-1.62v-2.69h-.72v-.62l.76-.05.1-1.03h.69v1.03h1.1729265v.67h-1.1729265v2.7c0 .6.19.94.75.94.17 0 .39-.07.55-.13l.16.62c-.27.09-.6.18-.9.18Zm4.6334229-6.78.0945656.63c-.18-.08-.37-.12-.55-.12-.46 0-.68.32-.68.94v.46h1.03v.67h-1.03v4.19h-.82v-4.19h-.66v-.62l.66-.05v-.46c0-.99.45-1.61 1.42-1.61.3 0 .3154344.07.5354344.16Zm3.4710107 6.77c-1.19 0-2.25-.93-2.25-2.54 0-1.63 1.06-2.56 2.25-2.56s2.25.93 2.25 2.56c0 1.61-1.06 2.54-2.25 2.54Zm0-.68c.84 0 1.4-.75 1.4-1.86 0-1.12-.56-1.88-1.4-1.88-.83 0-1.4.76-1.4 1.88 0 1.11.57 1.86 1.4 1.86Zm3.4806759.69v-4.86h.68l.07.88h.03c.33-.61.83-1 1.38-1 .21 0 .36.03.52.1l-.16.72c-.16-.05-.27-.08-.47-.08-.41 0-.9.3-1.23 1.12v3.12h-.82Zm4.1391921-.01v-4.86h.68l.07.7h.03c.42-.46.93-.82 1.51-.82.74 0 1.14.35 1.34.93.51-.55 1.01-.93 1.6-.93 1 0 1.48.66 1.48 1.9v3.08h-.82v-2.97c0-.91-.29-1.3-.9-1.3-.38 0-.77.25-1.22.75v3.52h-.82v-2.97c0-.91-.29-1.3-.91-1.3-.36 0-.77.25-1.22.75v3.52h-.82Z"/><path d="M60 43.9999996v-6.67199717h1.64c2.02 0 3.1 1.28199717 3.1 3.36199717 0 2.09-1.08 3.31-3.06 3.31H60Zm.83-.68h.75c1.53 0 2.3-.97 2.3-2.63 0-1.65-.77-2.68199717-2.3-2.68199717h-.75v5.31199717Zm5.19164223.68v-4.86h.82v4.86h-.82Zm.48626627-5.9533206c-.32 0-.57-.22-.57-.53 0-.32.25-.53.57-.53.32 0 .57.21.57.53 0 .31-.25.53-.57.53Zm3.495385 7.97567383c-1.19000002 0-1.99994553-.42567383-1.99994553-1.26567383 0-.41.27-.8.71-1.1v-.04c-.24-.15-.43-.41-.43-.79 0-.41.28-.73.53-.9v-.04c-.32-.26-.63-.5766794-.63-1.1566794 0-1.06.84-1.73 1.83000003-1.73.27 0 .51.05.69.12h1.69v.63h-1c.23.22.4.59.4 1 0 1.04-.79 1.5366794-1.78 1.5366794-.24000003 0-.51000003-.06-.73000003-.17-.17.15-.31.31-.31.58 0 .31.2.53.86.53h.94000003c1.13 0 1.7.35 1.7 1.16 0 .9-.9600545 1.63567383-2.4700545 1.63567383Zm.0100545-4.28567383c.56 0 1.03-.2966794 1.03-1.0066794s-.46-1.13-1.03-1.13c-.57000003 0-1.03000003.42-1.03000003 1.13s.47 1.0066794 1.03000003 1.0066794Zm.1099455 3.71567383c.93 0 1.5500545-.43567383 1.5500545-.94567383 0-.45-.35-.6-.98-.6h-.84000003c-.19 0-.42-.02-.63-.08-.35.25-.5.54-.5.82 0 .52.51994551.80567383 1.39994553.80567383Zm3.8862717-1.54567383v-4.86h.82v4.86h-.82Zm.3795677-5.86c-.32 0-.57-.22-.57-.53 0-.32.25-.53.57-.53.32 0 .57.21.57.53 0 .31-.25.53-.57.53ZM78.395 44.0099996c-1.04 0-1.39-.66-1.39-1.62v-2.69h-.72v-.62l.76-.05.1-1.03h.69v1.03h1.1729265v.67H77.835v2.7c0 .6.19.94.75.94.17 0 .39-.07.55-.13l.16.62c-.27.09-.6.18-.9.18Zm3.2133857.0366794c-.81 0-1.42-.51-1.42-1.38 0-1.06.91-1.59 2.98-1.82 0-.62-.2-1.22-1-1.22-.56 0-1.07.26-1.45.52l-.32-.57c.45-.29 1.13-.63 1.91-.63 1.19 0 1.69.79 1.69 2v2.98h-.68l-.07-.58h-.03c-.46.38-1 .7-1.61.7Zm.24-.66c.47 0 .85-.23 1.32-.65v-1.35c-1.62.2-2.18.6-2.18 1.22 0 .55.38.78.86.78Zm4.2359715.54c-.62 0-.87-.39-.87-1.1l-.1097067-5.84h.82l.1097067 5.9c0 .26.11.36.23.36.05 0 .09 0 .18-.02l.11.62c-.11.05-.25.08-.47.08Zm4.9858498.0633206v-6.92h1.87c1.47 0 2.46.59 2.46 2.03 0 1.38-.98 1.84-2.42 1.84h-1.08v3.05h-.83Zm.83-3.73h.98c1.14 0 1.69-.23 1.69-1.16 0-.95-.58-1.36-1.73-1.36h-.94v2.52Zm6.0069191 3.72c-.62 0-.87-.39-.87-1.1v-5.88h.82v5.94c0 .26.11.36.23.36.05 0 .09 0 .18-.02l.11.62c-.11.05-.25.08-.47.08Zm2.6961806.02c-.81 0-1.42-.51-1.42-1.38 0-1.06.91-1.59 2.98-1.82 0-.62-.2-1.22-1-1.22-.56 0-1.07.26-1.45.52l-.32-.57c.45-.29 1.13-.63 1.91-.63 1.19 0 1.69.79 1.69 2v2.98h-.68l-.07-.58h-.03c-.46.38-1 .7-1.61.7Zm.24-.66c.47 0 .85-.23 1.32-.65v-1.35c-1.62.2-2.18.6-2.18 1.22 0 .55.38.78.86.78Zm5.5532703.67c-1.04 0-1.39-.66-1.39-1.62v-2.69h-.72v-.62l.76-.05.1-1.03h.69v1.03h1.1729265v.67h-1.1729265v2.7c0 .6.19.94.75.94.17 0 .39-.07.55-.13l.16.62c-.27.09-.6.18-.9.18Zm4.6334229-6.78.0945656.63c-.18-.08-.37-.12-.55-.12-.46 0-.68.32-.68.94v.46h1.03v.67h-1.03v4.19h-.82v-4.19h-.66v-.62l.66-.05v-.46c0-.99.45-1.61 1.42-1.61.3 0 .3154344.07.5354344.16Zm3.4710107 6.77c-1.19 0-2.25-.93-2.25-2.54 0-1.63 1.06-2.56 2.25-2.56s2.25.93 2.25 2.56c0 1.61-1.06 2.54-2.25 2.54Zm0-.68c.84 0 1.4-.75 1.4-1.86 0-1.12-.56-1.88-1.4-1.88-.83 0-1.4.76-1.4 1.88 0 1.11.57 1.86 1.4 1.86Zm3.4806759.69v-4.86h.68l.07.88h.03c.33-.61.83-1 1.38-1 .21 0 .36.03.52.1l-.16.72c-.16-.05-.27-.08-.47-.08-.41 0-.9.3-1.23 1.12v3.12h-.82Zm4.1391921-.01v-4.86h.68l.07.7h.03c.42-.46.93-.82 1.51-.82.74 0 1.14.35 1.34.93.51-.55 1.01-.93 1.6-.93 1 0 1.48.66 1.48 1.9v3.08h-.82v-2.97c0-.91-.29-1.3-.9-1.3-.38 0-.77.25-1.22.75v3.52h-.82v-2.97c0-.91-.29-1.3-.91-1.3-.36 0-.77.25-1.22.75v3.52h-.82Z"/></g><path d="M64.2123894 30 60 16h2.539823l1.899705 7.0412979c.4336283 1.5280236.7433629 2.8495576 1.1976401 4.3982301h.0825959c.4542773-1.5486725.7640118-2.8702065 1.1769912-4.3982301L68.7758112 16h2.4572271l-4.1917404 14h-2.8289085Zm10.6135693-5.7817109h3.4483776l-.4749263-1.6519174c-.4336283-1.4247788-.8259587-2.9734513-1.2182891-4.460177h-.0825958c-.3716814 1.5073746-.7640118 3.0353982-1.1976401 4.460177l-.4749263 1.6519174ZM79.8643068 30l-1.0530974-3.9026549h-4.5427728L73.2153392 30h-2.4365781l4.3982301-14h2.8082595l4.3982301 14h-2.519174Zm9.3746313 0c-3.4070797 0-6.0914455-2.4778761-6.0914455-6.9587021C83.1474926 18.6224189 85.9144543 16 89.3215339 16c1.6932154 0 3.0560472.8053097 3.9026549 1.7138643l-1.280236 1.5486726c-.7020649-.7020649-1.5073746-1.1769912-2.560472-1.1769912-2.2094395 0-3.778761 1.8584071-3.778761 4.8938053 0 3.0766962 1.4454277 4.9351033 3.7168141 4.9351033 1.1976401 0 2.1268437-.5575221 2.8908555-1.3834808l1.280236 1.5073746C92.3982301 29.2979351 90.9734513 30 89.2389381 30Zm8.7964601-5.7817109h3.4483778l-.474926-1.6519174c-.433629-1.4247788-.825959-2.9734513-1.2182895-4.460177h-.0825959c-.3716814 1.5073746-.7640118 3.0353982-1.1976401 4.460177l-.4749263 1.6519174ZM103.073746 30l-1.053097-3.9026549h-4.5427729L96.4247788 30h-2.4365782l4.3982301-14h2.8082593l4.39823 14h-2.519174Zm5.595871 0V18.2713864h-3.902655V16h10.20059v2.2713864h-3.902655V30h-2.39528Zm8.548672 0V16h2.39528v14h-2.39528Zm11.067847 0c-3.510325 0-5.946903-2.6843658-5.946903-7.0619469 0-4.3569322 2.436578-6.9380531 5.946903-6.9380531 3.530973 0 5.967551 2.5811209 5.967551 6.9380531 0 4.3775811-2.436578 7.0619469-5.967551 7.0619469Zm0-2.0855457c2.126843 0 3.489675-1.941003 3.489675-4.9764012 0-3.0147493-1.362832-4.8525074-3.489675-4.8525074-2.126844 0-3.489676 1.8377581-3.489676 4.8525074 0 3.0353982 1.362832 4.9764012 3.489676 4.9764012ZM136.958702 30V16h2.457227l4.21239 7.8466077 1.38348 2.8702065h.082596c-.103245-1.3834809-.309734-3.0973452-.309734-4.6047198V16h2.292035v14h-2.457227l-4.212389-7.8466077-1.383481-2.8702065h-.082596c.103245 1.4247788.309734 3.0560472.309734 4.5634219V30h-2.292035Z" fill="#FFF" fill-rule="evenodd"/><path d="M36.5 40c.8284271 0 1.5.6715729 1.5 1.5v2c0 .8284271-.6715729 1.5-1.5 1.5s-1.5-.6715729-1.5-1.5v-2c0-.8284271.6715729-1.5 1.5-1.5Zm-6.7175144-2.7824856c.5857864.5857865.5857864 1.5355339 0 2.1213204l-1.4142136 1.4142135c-.58578642.5857865-1.53553389.5857865-2.12132033 0-.58578643-.5857864-.58578643-1.5355339 0-2.1213203l1.41421357-1.4142136c.58578646-.5857864 1.53553386-.5857864 2.12132036 0Zm15.5563492 0 1.4142135 1.4142136c.5857865.5857864.5857865 1.5355339 0 2.1213203-.5857864.5857865-1.5355339.5857865-2.1213203 0l-1.4142136-1.4142135c-.5857864-.5857865-.5857864-1.5355339 0-2.1213204.5857865-.5857864 1.5355339-.5857864 2.1213204 0ZM36.5 24c3.5898509 0 6.5 2.9101491 6.5 6.5S40.0898509 37 36.5 37 30 34.0898509 30 30.5s2.9101491-6.5 6.5-6.5Zm0 3c-1.9329966 0-3.5 1.5670034-3.5 3.5s1.5670034 3.5 3.5 3.5 3.5-1.5670034 3.5-3.5-1.5670034-3.5-3.5-3.5Zm-11 2c.82842712 0 1.5.6715729 1.5 1.5s-.67157288 1.5-1.5 1.5h-2c-.82842712 0-1.5-.6715729-1.5-1.5s.67157288-1.5 1.5-1.5h2Zm24 0c.8284271 0 1.5.6715729 1.5 1.5s-.6715729 1.5-1.5 1.5h-2c-.8284271 0-1.5-.6715729-1.5-1.5s.6715729-1.5 1.5-1.5h2Zm-21.131728-8.75304833 1.4142136 1.41421357c.5857864.58578646.5857864 1.53553386 0 2.12132036-.5857865.5857864-1.5355339.5857864-2.12132036 0l-1.41421357-1.4142136c-.58578643-.58578642-.58578643-1.53553389 0-2.12132033.58578644-.58578643 1.53553391-.58578643 2.12132033 0Zm18.3847763 0c.5857865.58578644.5857865 1.53553391 0 2.12132033l-1.4142135 1.4142136c-.5857865.5857864-1.5355339.5857864-2.1213204 0-.5857864-.5857865-.5857864-1.5355339 0-2.12132036l1.4142136-1.41421357c.5857864-.58578643 1.5355339-.58578643 2.1213203 0ZM36.5 16c.8284271 0 1.5.67157288 1.5 1.5v2c0 .82842712-.6715729 1.5-1.5 1.5s-1.5-.67157288-1.5-1.5v-2c0-.82842712.6715729-1.5 1.5-1.5Z" fill-rule="nonzero" fill="#FFF"/></svg>